<?xml version="1.0" encoding="utf-8"?>
<!-- Generator: Adobe Illustrator 22.0.1, SVG Export Plug-In . SVG Version: 6.00 Build 0)  -->
<svg version="1.1" id="Layer_1" xmlns="http://www.w3.org/2000/svg" xmlns:xlink="http://www.w3.org/1999/xlink" x="0px" y="0px"
	 viewBox="0 0 501.2 102.3" style="enable-background:new 0 0 501.2 102.3;" xml:space="preserve">
<style type="text/css">
	.st0{fill:#FC4C02;}
</style>
<g>
	<rect x="76.5" y="34" class="st0" width="20" height="68.3"/>
	<polygon class="st0" points="309.1,34 309.1,102.3 372.4,102.3 372.4,87.4 329.1,87.4 329.1,75.6 364.7,75.6 364.7,60.7 
		329.1,60.7 329.1,48.9 372.4,48.9 372.4,34 	"/>
	<polygon class="st0" points="382,34 412.5,68.1 382,102.3 404.5,102.3 423.8,80.7 443.1,102.3 465.6,102.3 435.1,68.1 423.8,55.6 
		404.5,34 	"/>
	<polygon class="st0" points="443.1,34 423.8,55.6 446.3,55.6 465.6,34 	"/>
	<polygon class="st0" points="481.9,15.6 465.6,34 484.7,34 501.2,15.6 	"/>
	<g>
		<path class="st0" d="M112.7,102.3V34h42c14.4,0,26.2,7.8,26.2,19.8c0,10.9-9.3,18.2-20.7,19.6l25.6,28.9h-22.4l-24-26.7h-6.9v26.7
			H112.7z M132.7,46.9v15.4h14.9c10,0,12.5-3.6,12.5-8.2c0-4-2.9-7.3-11.1-7.3h-16.3V46.9z"/>
	</g>
	<polygon class="st0" points="265.3,34 245,74.9 224.4,34 196.8,34 196.8,102.3 214.4,102.3 214.4,53.8 238.6,102.3 251.2,102.3 
		275.3,53.8 275.3,102.3 293.1,102.3 293.1,34 	"/>
	<polygon class="st0" points="457.2,0 443.2,15.6 459.6,15.6 473.4,0 	"/>
	<polygon class="st0" points="0,34 0,102.3 20,102.3 20,75.6 55.6,75.6 55.6,60.7 20,60.7 20,48.9 63.3,48.9 63.3,34 	"/>
</g>
</svg>
